<svg width="703" height="707" viewBox="0 0 703 707" fill="none" xmlns="http://www.w3.org/2000/svg">
<path d="M171 129V585.608C272.333 658.328 533.4 769.267 767 631.269" stroke="#FFCC01" stroke-width="20"/>
<path d="M293.676 50.996C109.322 65.7671 -172.251 137.161 176.286 304.57" stroke="#FFCC01" stroke-width="20"/>
<path d="M170.175 253.162C85.1904 217.029 -31.1612 138.566 183.31 113.779" stroke="#FFCC01" stroke-width="20"/>
<path d="M965 138.5C965 153.329 956.173 168.978 936.713 184.615C917.344 200.179 888.705 214.636 852.428 226.966C779.973 251.592 679.236 267 567.5 267C455.764 267 355.027 251.592 282.572 226.966C246.295 214.636 217.656 200.179 198.287 184.615C178.827 168.978 170 153.329 170 138.5C170 123.671 178.827 108.022 198.287 92.3847C217.656 76.8211 246.295 62.3636 282.572 50.0338C355.027 25.4081 455.764 10 567.5 10C679.236 10 779.973 25.4081 852.428 50.0338C888.705 62.3636 917.344 76.8211 936.713 92.3847C956.173 108.022 965 123.671 965 138.5Z" fill="#FC2D00" stroke="#FFCD00" stroke-width="20"/>
</svg>
