<svg width="815" height="702" viewBox="0 0 815 702" fill="none" xmlns="http://www.w3.org/2000/svg">
<path d="M794 156C794 172.378 782.073 190.284 754.779 208.389C727.871 226.238 688.275 242.701 638.45 256.68C538.938 284.601 400.89 302 248 302C95.1101 302 -42.9383 284.601 -142.45 256.68C-192.275 242.701 -231.871 226.238 -258.779 208.389C-286.073 190.284 -298 172.378 -298 156C-298 139.622 -286.073 121.716 -258.779 103.611C-231.871 85.7616 -192.275 69.2993 -142.45 55.3195C-42.9383 27.399 95.1101 10 248 10C400.89 10 538.938 27.399 638.45 55.3195C688.275 69.2993 727.871 85.7616 754.779 103.611C782.073 121.716 794 139.622 794 156Z" fill="#FC2D00" stroke="#FFCD00" stroke-width="20"/>
<path d="M790.33 172.213L530.965 593.632C509.713 649.425 374.77 738.378 5.01096 647.853" stroke="#FFCC01" stroke-width="20"/>
</svg>
