<svg width="861" height="3208" viewBox="0 0 861 3208" fill="none" xmlns="http://www.w3.org/2000/svg">
<path d="M33 915L89 803H641L389 915L493 975L353 995L317 1175L213 995L13 1127L170 915H33Z" fill="#FC2D00"/>
<path d="M57 2891L170 3214H894L845 2947L741 3094V2886L509 3123L389 2947L285 3107L57 2891Z" fill="#FC2D00"/>
<path d="M353 159L417 15H773L825 159L741 127L717 243L641 159L473 243L493 127L353 159Z" fill="#FC2D00"/>
<path d="M33 915L89 803H641L389 915L493 975L353 995L317 1175L213 995L13 1127L170 915H33Z" stroke="#FFCD00" stroke-width="30"/>
<path d="M57 2891L170 3214H894L845 2947L741 3094V2886L509 3123L389 2947L285 3107L57 2891Z" stroke="#FFCD00" stroke-width="30"/>
<path d="M353 159L417 15H773L825 159L741 127L717 243L641 159L473 243L493 127L353 159Z" stroke="#FFCD00" stroke-width="30"/>
</svg>
